# xmcd
#
# Track frame offsets:
#	150
#	12547
#	26397
#	42320
#	58687
#	73662
#	88222
#	101347
#	116075
#	135665
#
# Disc length: 1970 seconds
#
# Revision: 2
# Processed by: cddbd v1.5.1PL0 Copyright (c) Steve Scherf et al.
# Submitted via: MusicWizard 7.0.2
#
DISCID=8707b00a
DTITLE=Hank Wiliams Jr. - Born To Boogie
DYEAR=1987
DGENRE=Countryrock
TTITLE0=Born To Boogie
TTITLE1=Honky Tonk Women
TTITLE2=Young Country
TTITLE3=Keep Your Hands To Yourself
TTITLE4=Buck Naked
TTITLE5=Heaven Can't Be Found
TTITLE6=Thanks Alot
TTITLE7=What It Boils Down To
TTITLE8=Shadow Face
TTITLE9=Practice What I Preach
EXTD=(c)1987 Warner Bros/Curb Records, upc 075992559317\nKatalog: 07599-25593-24\n\nproduced by Ba
EXTD=rry Beckett for Beckett Productions, Hank williams, Jr and Jim Ed Norman for Jen Productions.
EXTT0=
EXTT1=
EXTT2=
EXTT3=
EXTT4=
EXTT5=
EXTT6=
EXTT7=
EXTT8=
EXTT9=
PLAYORDER=
